HIERARCHY
ROOT Hips
{
  OFFSET 49.328 94.0659 14.3002
  CHANNELS 6 Xposition Yposition Zposition Zrotation Xrotation Yrotation
  JOINT spine
  {
    OFFSET 0 7.80058 0.448573
    CHANNELS 3 Zrotation Xrotation Yrotation
    JOINT spine1
    {
      OFFSET 0 10.1364 0
      CHANNELS 3 Zrotation Xrotation Yrotation
      JOINT spine2
      {
        OFFSET 0 9.71251 0
        CHANNELS 3 Zrotation Xrotation Yrotation
        JOINT Neck
        {
          OFFSET 0 24.9361 1.18887
          CHANNELS 3 Zrotation Xrotation Yrotation
          JOINT Head
          {
            OFFSET 0 7.53384 0
            CHANNELS 3 Zrotation Xrotation Yrotation
            End Site
            {
              OFFSET 0 18.2361 -6.01402
            }
          }
        }
        JOINT RightShoulder
        {
          OFFSET -4.08965 10.4888 -0.569457
          CHANNELS 3 Zrotation Xrotation Yrotation
          JOINT RightArm
          {
            OFFSET 0 13.757 0
            CHANNELS 3 Zrotation Xrotation Yrotation
            JOINT RightArmRoll
            {
              OFFSET 0 6.94478 0
              CHANNELS 3 Zrotation Xrotation Yrotation
              JOINT RightForeArm
              {
                OFFSET 0 20.2277 0
                CHANNELS 3 Zrotation Xrotation Yrotation
                JOINT RightForeArmRoll
                {
                  OFFSET 0 7.79312 0
                  CHANNELS 3 Zrotation Xrotation Yrotation
                  JOINT RightHand
                  {
                    OFFSET 0 15.6391 0
                    CHANNELS 3 Zrotation Xrotation Yrotation
                    End Site
                    {
                      OFFSET 0 0 0
                    }
                  }
                }
              }
            }
          }
        }
        JOINT LeftShoulder
        {
          OFFSET 4.08965 10.4888 -0.569457
          CHANNELS 3 Zrotation Xrotation Yrotation
          JOINT LeftArm
          {
            OFFSET 0 13.757 0
            CHANNELS 3 Zrotation Xrotation Yrotation
            JOINT LeftArmRoll
            {
              OFFSET 0 6.94478 0
              CHANNELS 3 Zrotation Xrotation Yrotation
              JOINT LeftForeArm
              {
                OFFSET 0 20.2277 0
                CHANNELS 3 Zrotation Xrotation Yrotation
                JOINT LeftForeArmRoll
                {
                  OFFSET 0 7.79312 0
                  CHANNELS 3 Zrotation Xrotation Yrotation
                  JOINT LeftHand
                  {
                    OFFSET 0 15.6391 0
                    CHANNELS 3 Zrotation Xrotation Yrotation
                    End Site
                    {
                      OFFSET 0 0 0
                    }
                  }
                }
              }
            }
          }
        }
      }
    }
  }
  JOINT RightUpLeg
  {
    OFFSET -6.91415 -1.26788 -1.06358
    CHANNELS 3 Zrotation Xrotation Yrotation
    JOINT RightUpLegRoll
    {
      OFFSET 0 18.3378 0
      CHANNELS 3 Zrotation Xrotation Yrotation
      JOINT RightLeg
      {
        OFFSET 0 -22.7085 0
        CHANNELS 3 Zrotation Xrotation Yrotation
        JOINT RightLegRoll
        {
          OFFSET 0 22.7828 0
          CHANNELS 3 Zrotation Xrotation Yrotation
          JOINT RightFoot
          {
            OFFSET 0 18.9629 0
            CHANNELS 3 Zrotation Xrotation Yrotation
            JOINT RightToeBase
            {
              OFFSET 0 15.852 0
              CHANNELS 3 Zrotation Xrotation Yrotation
              End Site
              {
                OFFSET 0.00671906 7.677 -0.884893
              }
            }
          }
        }
      }
    }
  }
  JOINT LeftUpLeg
  {
    OFFSET 6.91415 -1.26788 -1.06358
    CHANNELS 3 Zrotation Xrotation Yrotation
    JOINT LeftUpLegRoll
    {
      OFFSET 0 18.3379 0
      CHANNELS 3 Zrotation Xrotation Yrotation
      JOINT LeftLeg
      {
        OFFSET 0 22.7084 0
        CHANNELS 3 Zrotation Xrotation Yrotation
        JOINT LeftLegRoll
        {
          OFFSET 0 22.9934 0
          CHANNELS 3 Zrotation Xrotation Yrotation
          JOINT LeftFoot
          {
            OFFSET 0 18.7522 0
            CHANNELS 3 Zrotation Xrotation Yrotation
            JOINT LeftToeBase
            {
              OFFSET 0 15.852 0
              CHANNELS 3 Zrotation Xrotation Yrotation
              End Site
              {
                OFFSET -0.030112 7.677 -0.884893
              }
            }
          }
        }
      }
    }
  }
}
MOTION
Frames: 12
Frame Time: 0.00208333
48.9739 94.1221 14.4872 -0.197812 -7.19661 -2.16725 -0.8996 -1.04158 0.128602 -1.79855 1.91549 0.358752 -1.80441 3.56009 0.389133 11.9673 6.48235 -4.66489 10.2383 -2.69625 -0.853836 27.8369 -14.5139 -11.0712 -11.2007 54.0967 88.0076 -9.93171e-006 4.02209e-006 3.67078e-006 4.73397 69.5636 -3.48198 -9.69718e-007 5.55998e-007 -3.00704 8.02892 -4.95141 0.697671 -65.3299 -2.90576 2.36878 -104.829 4.99156 -9.47994 1.78906e-015 -7.95139e-016 6.36111e-015 -6.86673 18.5009 2.40128 -1.42715e-005 -2.76759e-008 3 -8.02957 -4.95141 -0.697664 179.09 -3.99663 -0.259524 180 7.01533e-015 178.864 179.199 11.2096 179.455 2.32201e-006 -2.56743e-006 0.225108 -20.5916 71.2481 22.6139 8.13676 25.2366 -3.48836 179.919 -5.16688 5.97388 4.54188e-006 -4.6773e-006 -1.43177 -5.49082 -10.5514 -0.346459 1.73375e-006 -1.6257e-006 -0.2026 24.9569 71.7103 -23.5517 -8.13649 25.2327 3.48774 
48.9705 94.1221 14.4822 -0.202748 -7.19603 -2.17065 -0.89789 -1.04238 0.129574 -1.79511 1.91375 0.360499 -1.801 3.55835 0.390825 11.9625 6.53452 -4.67729 10.2687 -2.76835 -0.85162 27.8386 -14.4999 -11.0555 -11.16 54.0853 88.0803 -9.93171e-006 4.02209e-006 3.67078e-006 4.6715 69.295 -3.41389 -9.69718e-007 5.55998e-007 -3.00704 8.02892 -4.95141 0.697671 -65.3476 -2.88192 2.35738 -104.799 4.9802 -9.51231 1.39149e-015 -1.59028e-015 6.36111e-015 -6.8578 18.4748 2.39724 -1.42715e-005 -2.76759e-008 3 -8.02957 -4.95141 -0.697664 179.097 -3.99146 -0.259952 180 7.01533e-015 178.864 179.194 11.2131 179.456 2.32201e-006 -2.56743e-006 0.225412 -20.6015 71.2465 22.6163 8.13675 25.2366 -3.48836 179.925 -5.15829 5.97027 4.54188e-006 -4.6773e-006 -1.43175 -5.48992 -10.5632 -0.346571 1.73375e-006 -1.6257e-006 -0.203047 24.9657 71.7137 -23.5568 -8.13649 25.2327 3.48774 
48.9659 94.1212 14.5106 -0.207632 -7.195 -2.17356 -0.896202 -1.04327 0.130529 -1.79172 1.91188 0.362213 -1.79764 3.55648 0.392484 11.9575 6.58633 -4.68956 10.299 -2.84043 -0.849378 27.8408 -14.4861 -11.0399 -11.1096 54.0725 88.1453 -9.93171e-006 4.02209e-006 3.67078e-006 4.60991 69.0286 -3.34683 -9.69718e-007 5.55998e-007 -3.00704 8.02892 -4.95141 0.697671 -65.3652 -2.8577 2.34579 -104.769 4.96875 -9.54558 -4.37326e-015 0 1.59028e-015 -6.84835 18.4479 2.39303 -1.42715e-005 -2.76759e-008 3 -8.02957 -4.95141 -0.697664 179.103 -3.98598 -0.26052 180 7.01533e-015 178.864 179.189 11.2164 179.458 2.32201e-006 -2.56743e-006 0.225705 -20.6112 71.2448 22.6187 8.13675 25.2366 -3.48835 179.931 -5.14896 5.96677 4.54188e-006 -4.6773e-006 -1.43173 -5.48895 -10.5754 -0.346691 1.73375e-006 -1.6257e-006 -0.203485 24.9743 71.7172 -23.5621 -8.13649 25.2327 3.48774 
48.9603 94.1218 14.5 -0.212447 -7.19356 -2.17603 -0.89455 -1.04421 0.131452 -1.7884 1.90995 0.363865 -1.79434 3.55455 0.394082 11.9522 6.63697 -4.70161 10.3288 -2.91165 -0.847195 27.8434 -14.4726 -11.0247 -11.0493 54.0586 88.2027 -9.93171e-006 4.02209e-006 3.67078e-006 4.54932 68.7652 -3.28091 -9.69718e-007 5.55998e-007 -3.00704 8.02892 -4.95141 0.697671 -65.3827 -2.83354 2.33421 -104.739 4.95734 -9.57955 -1.78906e-015 -2.38542e-015 1.59028e-015 -6.83837 18.4204 2.38866 -1.42715e-005 -2.76759e-008 3 -8.02957 -4.95141 -0.697664 179.11 -3.98026 -0.261272 180 7.01533e-015 178.864 179.184 11.2195 179.459 2.32201e-006 -2.56743e-006 0.225985 -20.6205 71.2431 22.6207 8.13675 25.2365 -3.48835 179.937 -5.13898 5.96334 4.54188e-006 -4.6773e-006 -1.4317 -5.48795 -10.5878 -0.346823 1.73375e-006 -1.6257e-006 -0.203908 24.9826 71.7208 -23.5673 -8.13649 25.2327 3.48774 
48.9547 94.1229 14.5015 -0.217173 -7.19174 -2.17813 -0.892942 -1.04516 0.132327 -1.78517 1.90802 0.365424 -1.79113 3.55262 0.39559 11.9468 6.68561 -4.71335 10.3581 -2.98121 -0.845152 27.8463 -14.4597 -11.0101 -10.9791 54.0437 88.2528 -9.93171e-006 4.02209e-006 3.67078e-006 4.48985 68.5057 -3.21623 -9.69718e-007 5.55998e-007 -3.00704 8.02892 -4.95141 0.697671 -65.3996 -2.80986 2.32284 -104.71 4.94612 -9.61399 1.0138e-014 3.18055e-015 3.18055e-015 -6.82786 18.3925 2.38416 -1.42715e-005 -2.76759e-008 3 -8.02957 -4.95141 -0.697664 179.117 -3.97436 -0.262254 180 7.01533e-015 178.864 179.179 11.2222 179.461 2.32201e-006 -2.56743e-006 0.226247 -20.6292 71.2413 22.6224 8.13675 25.2365 -3.48835 179.944 -5.12848 5.95998 4.54188e-006 -4.6773e-006 -1.43168 -5.48696 -10.6004 -0.346972 1.73375e-006 -1.6257e-006 -0.204312 24.9906 71.7243 -23.5725 -8.13649 25.2327 3.48774 
48.9502 94.1171 14.5017 -0.22179 -7.18959 -2.17991 -0.891391 -1.04611 0.133138 -1.78205 1.90617 0.366863 -1.78804 3.55077 0.396978 11.9413 6.73142 -4.7247 10.3866 -3.04829 -0.843333 27.8496 -14.4474 -10.9961 -10.8988 54.0282 88.2957 -9.93171e-006 4.02209e-006 3.67078e-006 4.43161 68.2509 -3.15286 -9.69718e-007 5.55998e-007 -3.00704 8.02892 -4.95141 0.697671 -65.4159 -2.78706 2.3119 -104.681 4.9352 -9.6487 -3.97569e-015 -7.95139e-016 6.36111e-015 -6.81679 18.3644 2.37953 -1.42715e-005 -2.76759e-008 3 -8.02957 -4.95141 -0.697664 179.124 -3.96838 -0.26351 180 7.01533e-015 178.864 179.174 11.2245 179.462 2.32201e-006 -2.56743e-006 0.226489 -20.6371 71.2393 22.6235 8.13675 25.2365 -3.48834 179.95 -5.11757 5.95666 4.54188e-006 -4.6773e-006 -1.43166 -5.48601 -10.6129 -0.347142 1.73375e-006 -1.6257e-006 -0.204693 24.998 71.7277 -23.5776 -8.13649 25.2327 3.48774 
48.946 94.1214 14.493 -0.226282 -7.18715 -2.18144 -0.889907 -1.04702 0.13387 -1.77907 1.90446 0.368152 -1.78508 3.54907 0.398219 11.9358 6.77358 -4.73555 10.414 -3.11206 -0.84182 27.853 -14.4359 -10.983 -10.8082 54.0121 88.3317 -9.93171e-006 4.02209e-006 3.67078e-006 4.37468 68.0014 -3.09089 -9.69718e-007 5.55998e-007 -3.00704 8.02892 -4.95141 0.697671 -65.4311 -2.76558 2.30158 -104.654 4.92474 -9.68346 7.95139e-016 0 3.18055e-015 -6.80517 18.3362 2.3748 -1.42715e-005 -2.76759e-008 3 -8.02957 -4.95141 -0.697664 179.13 -3.96239 -0.265088 180 7.01533e-015 178.864 179.17 11.2262 179.463 2.32201e-006 -2.56743e-006 0.226707 -20.6441 71.2371 22.6239 8.13675 25.2365 -3.48834 179.956 -5.10635 5.95337 4.54188e-006 -4.6773e-006 -1.43164 -5.48514 -10.6253 -0.347338 1.73375e-006 -1.6257e-006 -0.205044 25.0048 71.7311 -23.5824 -8.13649 25.2327 3.48774 
48.9404 94.1182 14.4951 -0.230628 -7.18445 -2.18277 -0.888502 -1.04786 0.134507 -1.77625 1.90297 0.369262 -1.78227 3.54758 0.399283 11.9303 6.81127 -4.74582 10.4401 -3.17172 -0.840695 27.8567 -14.4253 -10.971 -10.7074 53.9957 88.3611 -9.93171e-006 4.02209e-006 3.67078e-006 4.31914 67.7582 -3.03036 -9.69718e-007 5.55998e-007 -3.00704 8.02892 -4.95141 0.697671 -65.4451 -2.74583 2.2921 -104.628 4.91485 -9.71807 -7.7526e-015 -7.95139e-016 4.77083e-015 -6.79298 18.3082 2.36999 -1.42715e-005 -2.76759e-008 3 -8.02957 -4.95141 -0.697664 179.137 -3.95646 -0.267031 180 7.01533e-015 178.864 179.167 11.2272 179.465 2.32201e-006 -2.56743e-006 0.226898 -20.6498 71.2347 22.6235 8.13675 25.2365 -3.48834 179.963 -5.09494 5.95008 4.54188e-006 -4.6773e-006 -1.43164 -5.48439 -10.6375 -0.347563 1.73375e-006 -1.6257e-006 -0.205362 25.0109 71.7342 -23.587 -8.13649 25.2327 3.48774 
48.9358 94.1179 14.4485 -0.23481 -7.18154 -2.18397 -0.887186 -1.04861 0.135033 -1.77361 1.90177 0.370165 -1.77964 3.54638 0.400143 11.925 6.84366 -4.75542 10.4648 -3.22645 -0.840041 27.8605 -14.4159 -10.9602 -10.5963 53.9792 88.384 -9.93171e-006 4.02209e-006 3.67078e-006 4.26507 67.522 -2.97134 -9.69718e-007 5.55998e-007 -3.00704 8.02892 -4.95141 0.697671 -65.4576 -2.72823 2.28366 -104.604 4.90568 -9.75232 -1.98785e-016 1.59028e-015 6.36111e-015 -6.7802 18.2805 2.36511 -1.42715e-005 -2.76759e-008 3 -8.02957 -4.95141 -0.697664 179.144 -3.95066 -0.269385 180 7.01533e-015 178.864 179.164 11.2276 179.466 2.32201e-006 -2.56743e-006 0.227057 -20.6541 71.232 22.6222 8.13674 25.2364 -3.48833 179.969 -5.08344 5.94677 4.54188e-006 -4.6773e-006 -1.43166 -5.48379 -10.6492 -0.347823 1.73375e-006 -1.6257e-006 -0.205641 25.016 71.7372 -23.5913 -8.13649 25.2327 3.48774 
48.9342 94.1196 14.4562 -0.238809 -7.17845 -2.18509 -0.88597 -1.04922 0.135434 -1.77117 1.90092 0.37083 -1.77721 3.54553 0.400769 11.9198 6.86993 -4.76425 10.4877 -3.27542 -0.839941 27.8643 -14.4077 -10.9507 -10.4746 53.9628 88.4007 -9.93171e-006 4.02209e-006 3.67078e-006 4.21253 67.2936 -2.91386 -9.69718e-007 5.55998e-007 -3.00704 8.02892 -4.95141 0.697671 -65.4684 -2.7132 2.27645 -104.582 4.89737 -9.78598 -6.55989e-015 1.59028e-015 4.77083e-015 -6.76683 18.2534 2.36018 -1.42715e-005 -2.76759e-008 3 -8.02957 -4.95141 -0.697664 179.151 -3.94508 -0.272196 180 7.01533e-015 178.864 179.161 11.2271 179.466 2.32201e-006 -2.56743e-006 0.227183 -20.6568 71.229 22.6197 8.13674 25.2364 -3.48833 179.976 -5.07197 5.94344 4.54188e-006 -4.6773e-006 -1.4317 -5.48339 -10.6605 -0.348121 1.73375e-006 -1.6257e-006 -0.205878 25.0201 71.7399 -23.5951 -8.13649 25.2327 3.48774 
48.9243 94.1199 14.446 -0.242695 -7.17503 -2.18599 -0.884861 -1.04983 0.135704 -1.76891 1.90024 0.371288 -1.77496 3.54485 0.401189 11.915 6.89202 -4.77233 10.5091 -3.32058 -0.83996 27.8687 -14.4005 -10.9424 -10.3385 53.9468 88.4085 -9.93171e-006 4.02209e-006 3.67078e-006 4.16137 67.0739 -2.85765 -9.69718e-007 5.55998e-007 -3.00704 8.02892 -4.95141 0.697671 -65.4776 -2.70004 2.27013 -104.562 4.8896 -9.81956 6.95746e-015 -7.95139e-016 7.95139e-015 -6.75276 18.2265 2.35513 -1.42715e-005 -2.76759e-008 3 -8.02957 -4.95141 -0.697664 179.158 -3.93946 -0.275587 180 7.01533e-015 178.864 179.16 11.2258 179.467 2.32201e-006 -2.56743e-006 0.227258 -20.6579 71.2257 22.6161 8.13674 25.2364 -3.48833 179.982 -5.06004 5.94013 4.54188e-006 -4.6773e-006 -1.43176 -5.48304 -10.6718 -0.34846 1.73375e-006 -1.6257e-006 -0.206079 25.0233 71.7425 -23.5987 -8.13649 25.2327 3.48774 
48.9164 94.1176 14.4364 -0.246541 -7.1711 -2.18647 -0.883851 -1.05055 0.135859 -1.76679 1.89953 0.371594 -1.77285 3.54414 0.401458 11.9108 6.91228 -4.77978 10.5293 -3.36429 -0.839682 27.8741 -14.3939 -10.9347 -10.1853 53.9314 88.4054 -9.93171e-006 4.02209e-006 3.67078e-006 4.11125 66.8628 -2.80234 -9.69718e-007 5.55998e-007 -3.00704 8.02892 -4.95141 0.697671 -65.4857 -2.68776 2.26419 -104.542 4.88201 -9.85365 7.15625e-015 2.38542e-015 3.18055e-015 -6.73794 18.1991 2.3499 -1.42715e-005 -2.76759e-008 3 -8.02957 -4.95141 -0.697664 179.166 -3.93355 -0.279598 180 7.01533e-015 178.864 179.159 11.224 179.467 2.32201e-006 -2.56743e-006 0.227273 -20.6574 71.222 22.6115 8.13674 25.2364 -3.48832 179.989 -5.04713 5.93691 4.54188e-006 -4.6773e-006 -1.43185 -5.4826 -10.6835 -0.348838 1.73375e-006 -1.6257e-006 -0.206255 25.0259 71.7451 -23.6023 -8.13649 25.2327 3.48774 
